<?xml version="1.0" encoding="UTF-8" standalone="no"?>
<!DOCTYPE svg PUBLIC "-//W3C//DTD SVG 1.1//EN" "http://www.w3.org/Graphics/SVG/1.1/DTD/svg11.dtd">
<svg width="100%" height="100%" viewBox="0 0 1540 141" version="1.1" xmlns="http://www.w3.org/2000/svg" xmlns:xlink="http://www.w3.org/1999/xlink" xml:space="preserve" xmlns:serif="http://www.serif.com/" style="fill-rule:evenodd;clip-rule:evenodd;stroke-linejoin:round;stroke-miterlimit:2;">
    <g transform="matrix(1,0,0,1,-237.499214,-904.889189)">
        <g transform="matrix(1.528301,0,0,1.528301,-430.65331,-264.669123)">
            <g transform="matrix(2.992592,0,0,2.992592,-441.263083,-1598.047129)">
                <path d="M306.115,820.381C302.077,820.381 298.965,819.427 296.779,817.519C294.593,815.612 293.514,812.751 293.542,808.936L300.35,808.936C300.323,810.523 300.796,811.734 301.771,812.57C302.745,813.405 304.11,813.823 305.864,813.823C307.312,813.823 308.454,813.586 309.289,813.113C310.125,812.639 310.542,811.915 310.542,810.941C310.542,810.133 310.118,809.548 309.268,809.186C308.419,808.824 307.577,808.567 306.741,808.413C305.906,808.26 305.391,808.17 305.196,808.142C303.051,807.724 301.2,807.216 299.64,806.617C298.081,806.019 296.772,805.107 295.714,803.881C294.656,802.656 294.127,801.041 294.127,799.036C294.127,797.031 294.656,795.326 295.714,793.919C296.772,792.513 298.185,791.462 299.954,790.766C301.722,790.07 303.65,789.721 305.739,789.721C308.273,789.721 310.466,790.195 312.317,791.142C314.169,792.088 315.624,793.523 316.682,795.444C317.211,796.363 317.532,797.247 317.643,798.096C317.754,798.946 317.81,799.774 317.81,800.582L311.002,800.582C311.002,799.078 310.598,797.971 309.79,797.261C308.983,796.551 307.73,796.196 306.031,796.196C304.667,796.196 303.608,796.432 302.857,796.906C302.105,797.379 301.729,798.02 301.729,798.827C301.729,799.718 302.23,800.373 303.232,800.79C304.235,801.208 305.502,801.584 307.034,801.918C309.54,802.419 311.496,802.9 312.902,803.359C314.308,803.819 315.527,804.633 316.557,805.803C317.587,806.972 318.103,808.615 318.103,810.732C318.103,812.737 317.546,814.463 316.432,815.911C315.318,817.359 313.849,818.466 312.025,819.232C310.201,819.998 308.231,820.381 306.115,820.381Z" style="fill:white;fill-rule:nonzero;"/>
            </g>
            <g transform="matrix(2.992592,0,0,-2.992592,-449.763083,3220.581054)">
                <path d="M339.238,807.724L349.346,790.557L325.955,790.557L325.955,819.629L349.346,819.629L339.238,807.724ZM345.409,817.807L327.777,817.807L327.777,792.379L346.159,792.379L337.011,807.916L345.409,817.807Z" style="fill:white;"/>
            </g>
            <g transform="matrix(2.992592,0,0,2.992592,-456.763083,-1598.047129)">
                <path d="M355.319,790.557L380.131,790.557L368.659,807.724L368.659,819.629L366.833,819.629L366.833,807.724L355.319,790.557Z" style="fill:white;fill-rule:nonzero;"/>
            </g>
        </g>
        <g transform="matrix(1.528301,0,0,1.528301,-521.969298,-263.427379)">
            <g transform="matrix(2.992592,0,0,2.992592,-449.763083,-1598.047129)">
                <path d="M417.807,790.515L429.628,808.476L441.282,790.515L441.282,819.587L417.807,819.587L417.807,790.515ZM419.629,796.598L419.629,817.765L439.46,817.765L439.46,796.671L429.639,811.807L419.629,796.598Z" style="fill:white;"/>
            </g>
            <g transform="matrix(2.992592,0,0,2.992592,-460.888083,-1598.047129)">
                <path d="M450.012,790.557L471.189,790.557L471.189,797.908L451.727,797.908L451.727,801.584L471.189,801.584L471.189,808.56L451.727,808.56L451.727,812.277L471.189,812.277L471.189,819.629L450.012,819.629L450.012,790.557Z" style="fill:white;fill-rule:nonzero;"/>
            </g>
            <g transform="matrix(2.992592,0,0,2.992592,-475.013083,-1598.047129)">
                <path d="M480.921,819.629L480.921,790.557L491.74,790.557C493.856,790.557 495.812,791.086 497.608,792.144C499.404,793.202 500.832,794.629 501.89,796.426C502.948,798.222 503.477,800.178 503.477,802.294L503.477,807.891C503.477,810.008 502.948,811.964 501.89,813.76C500.832,815.556 499.404,816.983 497.608,818.041C495.812,819.1 493.856,819.629 491.74,819.629L480.921,819.629ZM482.743,817.807L491.74,817.807C493.522,817.807 495.171,817.363 496.683,816.472C498.209,815.573 499.421,814.361 500.32,812.835C501.211,811.322 501.655,809.674 501.655,807.891L501.655,802.294C501.655,800.512 501.211,798.863 500.32,797.35C499.421,795.825 498.209,794.613 496.683,793.714C495.171,792.823 493.522,792.379 491.74,792.379L482.743,792.379L482.743,817.807Z" style="fill:white;"/>
            </g>
            <g transform="matrix(2.992592,0,0,2.992592,-488.138083,-1598.047129)">
                <path d="M512.875,797.908L512.875,790.557L531.672,790.557L531.672,797.908L523.165,797.908L523.165,812.277L531.672,812.277L531.672,819.629L512.875,819.629L512.875,812.277L521.381,812.277L521.381,797.908L512.875,797.908Z" style="fill:white;fill-rule:nonzero;"/>
            </g>
            <g transform="matrix(2.992592,0,0,2.992592,-496.513083,-1598.047129)">
                <path d="M566.884,819.629L539.483,819.629L553.183,789.93L566.884,819.629ZM564.036,817.807L553.183,794.28L542.33,817.807L564.036,817.807Z" style="fill:white;"/>
            </g>
        </g>
        <g transform="matrix(1.528301,0,0,1.528301,-678.620157,-263.427379)">
            <g transform="matrix(2.992592,0,0,2.992592,-449.763083,-1598.047129)">
                <path d="M627.7,812.235L627.7,819.629L605.562,819.629L605.562,790.557L607.312,790.557L607.312,812.235L627.7,812.235Z" style="fill:white;fill-rule:nonzero;"/>
            </g>
            <g transform="matrix(2.992592,0,0,2.992592,-448.263083,-1598.047129)">
                <path d="M659.613,819.629L632.212,819.629L645.912,789.93L659.613,819.629ZM656.765,817.807L645.912,794.28L635.059,817.807L656.765,817.807Z" style="fill:white;"/>
            </g>
            <g transform="matrix(2.992592,0,0,2.992592,-454.388083,-1598.047129)">
                <path d="M678.868,790.557C680.706,790.557 682.168,790.835 683.254,791.392C684.563,792.061 685.572,792.98 686.283,794.149C686.993,795.319 687.348,796.627 687.348,798.075C687.348,799.44 686.986,800.7 686.262,801.856C685.538,803.011 684.549,803.923 683.296,804.592C684.8,805.121 686.067,806.04 687.097,807.348C688.127,808.657 688.643,810.133 688.643,811.776C688.643,813.224 688.274,814.554 687.536,815.765C686.798,816.976 685.816,817.93 684.591,818.626C683.978,818.96 683.296,819.211 682.544,819.378C681.792,819.545 680.79,819.629 679.537,819.629L666.672,819.629L666.672,790.557L678.868,790.557Z" style="fill:white;fill-rule:nonzero;"/>
            </g>
        </g>
    </g>
</svg>
